<svg width="18" height="21" viewBox="0 0 18 21" fill="none" xmlns="http://www.w3.org/2000/svg">
<path d="M0.85 21C0.63 21 0.45 20.93 0.31 20.79C0.17 20.65 0.1 20.47 0.1 20.25V0.75C0.1 0.529999 0.17 0.349999 0.31 0.209999C0.45 0.0699989 0.63 -1.43051e-06 0.85 -1.43051e-06H9.25C10.91 -1.43051e-06 12.35 0.259999 13.57 0.779999C14.81 1.28 15.77 2.04 16.45 3.06C17.15 4.08 17.5 5.37 17.5 6.93C17.5 8.47 17.15 9.74 16.45 10.74C15.77 11.74 14.81 12.48 13.57 12.96C12.35 13.44 10.91 13.68 9.25 13.68H5.68V20.25C5.68 20.47 5.6 20.65 5.44 20.79C5.3 20.93 5.12 21 4.9 21H0.85ZM5.59 9.54H9.1C9.96 9.54 10.64 9.32 11.14 8.88C11.66 8.44 11.92 7.77 11.92 6.87C11.92 6.11 11.7 5.47 11.26 4.95C10.82 4.43 10.1 4.17 9.1 4.17H5.59V9.54Z" fill="#6022EA"/>
</svg>
