<svg width="26" height="32" viewBox="0 0 26 32" fill="none" xmlns="http://www.w3.org/2000/svg">
<path d="M25.2598 12.5635C25.2188 13.6162 25.0068 14.5801 24.624 15.4551C24.2412 16.3301 23.7354 17.1162 23.1064 17.8135C22.4775 18.5244 21.7461 19.1602 20.9121 19.7207C20.0781 20.2676 19.1895 20.7393 18.2461 21.1357L24.2139 30.5283L19.9688 31.9229L14.2266 22.3457C13.5703 22.4688 12.8867 22.5713 12.1758 22.6533C11.4785 22.7354 10.7061 22.7764 9.8584 22.7764C9.1748 22.7764 8.42285 22.749 7.60254 22.6943C6.7959 22.626 5.94824 22.5098 5.05957 22.3457L5.1416 31.041L0.814453 31.2051V2.18652C1.99023 1.83105 3.16602 1.56445 4.3418 1.38672C5.51758 1.20898 6.59082 1.07227 7.56152 0.976562C8.69629 0.867188 9.7832 0.805664 10.8223 0.791992C11.7109 0.791992 12.6953 0.853516 13.7754 0.976562C14.8555 1.09961 15.9355 1.31836 17.0156 1.63281C18.1094 1.94727 19.1689 2.38477 20.1943 2.94531C21.2061 3.50586 22.1016 4.2168 22.8809 5.07812C23.6465 5.95313 24.248 7.00586 24.6855 8.23633C25.123 9.4668 25.3145 10.9092 25.2598 12.5635ZM10.8223 4.91406C10.5078 4.91406 10.1865 4.9209 9.8584 4.93457C9.54395 4.94824 9.21582 4.96875 8.87402 4.99609C8.2998 5.03711 7.66406 5.09863 6.9668 5.18066C6.26953 5.24902 5.59277 5.3584 4.93652 5.50879L5.01855 18.5723C5.66113 18.6953 6.30371 18.7842 6.94629 18.8389C7.60254 18.8799 8.23828 18.9004 8.85352 18.9004C10.4941 18.9004 12.0459 18.7158 13.5088 18.3467C14.9854 17.9639 16.2773 17.4443 17.3848 16.7881C18.4922 16.1318 19.374 15.3594 20.0303 14.4707C20.6865 13.5684 21.0146 12.5977 21.0146 11.5586C21.0146 10.5059 20.7617 9.56934 20.2559 8.74902C19.7637 7.92871 19.0664 7.23145 18.1641 6.65723C16.3047 5.49512 13.8574 4.91406 10.8223 4.91406Z" fill="white"/>
</svg>
